<svg width="130" height="32" viewBox="0 0 130 32" fill="none" xmlns="http://www.w3.org/2000/svg">
<path d="M15.0703 31.0466C23.3934 31.0466 30.1407 24.3102 30.1407 16.0004C30.1407 7.69054 23.3934 0.954102 15.0703 0.954102C6.74722 0.954102 0 7.69054 0 16.0004C0 24.3102 6.74722 31.0466 15.0703 31.0466Z" fill="url(#paint0_linear_1_33208)"/>
<path d="M22.9919 11.9063C22.1974 11.9063 21.5234 12.5563 21.5234 13.3507C21.5234 13.76 21.6919 14.1211 21.9808 14.3859L17.503 24.7137C17.4549 24.81 17.3586 24.8581 17.2623 24.8581H14.4938C14.3975 24.8581 14.3012 24.7859 14.253 24.7137L7.2234 8.58408L7.24747 8.53593H14.8308C15.0475 9.08963 15.5771 9.47482 16.1789 9.47482C16.9734 9.47482 17.6474 8.82482 17.6474 8.03038C17.6474 7.23594 16.9974 6.58594 16.1789 6.58594C15.553 6.58594 15.0234 6.97112 14.8308 7.52482H7.27155C6.91044 7.52482 6.5734 7.69334 6.38081 8.0063C6.18822 8.29519 6.16414 8.68038 6.28451 9.01741L13.3141 25.147C13.5067 25.6044 13.9882 25.9174 14.4938 25.9174H17.2623C17.7678 25.9174 18.2252 25.6044 18.4419 25.147L22.9197 14.7952C22.9437 14.7952 22.9678 14.7952 22.9919 14.7952C23.7863 14.7952 24.4604 14.1452 24.4604 13.3507C24.4604 12.5563 23.8104 11.9063 22.9919 11.9063Z" fill="#17243F"/>
<path d="M11.3652 12.0752L15.843 21.9937L20.3208 12.0752H11.3652ZM12.9541 13.0863H18.78L15.8671 19.5381L12.9541 13.0863Z" fill="#17243F"/>
<path d="M39.3366 21.9698C39.0236 21.8013 38.7347 21.5365 38.494 21.1272C38.2533 20.742 38.0366 20.1883 37.844 19.4902L35.0273 9.66797H37.4829L40.131 19.442C40.2033 19.755 40.3477 19.8994 40.5162 19.8994C40.6847 19.8994 40.8292 19.755 40.9014 19.442L43.5495 9.66797H46.0051L43.1884 19.4902C42.9958 20.1883 42.7792 20.7179 42.5384 21.1272C42.2977 21.5124 42.0329 21.8013 41.6958 21.9698C41.3829 22.1383 40.9736 22.2105 40.5162 22.2105C40.0588 22.2346 39.6496 22.1383 39.3366 21.9698Z" fill="white"/>
<path d="M47.8344 12.2438C47.5696 11.979 47.4492 11.666 47.4492 11.3049C47.4492 10.9438 47.5696 10.6549 47.8344 10.3901C48.0992 10.1253 48.3881 10.0049 48.7492 10.0049C49.0863 10.0049 49.3992 10.1253 49.664 10.3901C49.9288 10.6549 50.0492 10.9678 50.0492 11.3049C50.0492 11.666 49.9288 11.979 49.664 12.2438C49.3992 12.5086 49.1103 12.629 48.7492 12.629C48.3881 12.653 48.0751 12.5086 47.8344 12.2438ZM47.9548 21.1752C47.714 20.79 47.6177 20.2363 47.6177 19.5382V13.7604H49.8807V19.466C49.8807 19.7789 49.9529 20.0437 50.0733 20.2363C50.1937 20.4289 50.4103 20.6456 50.7233 20.8863L49.2066 22.2345C48.6048 21.9215 48.1955 21.5604 47.9548 21.1752Z" fill="white"/>
<path d="M53.6376 22.0421C53.2284 21.9217 52.9154 21.7532 52.6747 21.5365C52.4339 21.3199 52.1691 21.031 51.9043 20.6699L53.3006 19.4662C53.6135 19.8513 53.8784 20.0921 54.1432 20.2606C54.408 20.405 54.7691 20.4773 55.2024 20.4773C55.708 20.4773 56.0691 20.405 56.2858 20.2847C56.5024 20.1643 56.6228 19.9717 56.6228 19.7069C56.6228 19.4421 56.4784 19.2495 56.1895 19.105C55.9006 18.9606 55.3469 18.8162 54.5284 18.6717C52.9154 18.3587 52.0969 17.468 52.0969 15.9995C52.0969 15.2532 52.3858 14.6513 52.9876 14.218C53.5895 13.7847 54.3598 13.5439 55.3469 13.5439C56.1654 13.5439 56.8154 13.6643 57.2969 13.9051C57.7784 14.1458 58.1635 14.4828 58.4765 14.9402L57.0802 16.1439C56.7672 15.831 56.5024 15.6143 56.2617 15.4939C56.021 15.3736 55.708 15.3013 55.3469 15.3013C54.6006 15.3013 54.2395 15.5662 54.2395 16.0958C54.2395 16.3365 54.3598 16.5291 54.6247 16.6495C54.8654 16.7699 55.1784 16.8662 55.5635 16.9384C56.2858 17.1069 56.8635 17.2754 57.2728 17.4439C57.7061 17.6125 58.0432 17.8773 58.3321 18.2384C58.6209 18.5995 58.7654 19.105 58.7654 19.731C58.7654 20.5736 58.4765 21.1995 57.8746 21.6087C57.2728 22.018 56.3821 22.2106 55.2024 22.2106C54.5765 22.2347 54.0469 22.1624 53.6376 22.0421Z" fill="white"/>
<path d="M60.6176 12.2438C60.3528 11.979 60.2324 11.666 60.2324 11.3049C60.2324 10.9438 60.3528 10.6549 60.6176 10.3901C60.8824 10.1253 61.1713 10.0049 61.5324 10.0049C61.8695 10.0049 62.1824 10.1253 62.4472 10.3901C62.712 10.6549 62.8324 10.9678 62.8324 11.3049C62.8324 11.666 62.712 11.979 62.4472 12.2438C62.1824 12.5086 61.8935 12.629 61.5324 12.629C61.1713 12.653 60.8824 12.5086 60.6176 12.2438ZM60.762 21.1752C60.5213 20.79 60.425 20.2363 60.425 19.5382V13.7604H62.688V19.466C62.688 19.7789 62.7602 20.0437 62.8806 20.2363C63.0009 20.4289 63.2176 20.6456 63.5306 20.8863L62.0139 22.2345C61.412 21.9215 61.0028 21.5604 60.762 21.1752Z" fill="white"/>
<path d="M65.963 21.3921C65.313 20.8384 65 20.0199 65 18.9847V16.7939C65 15.7588 65.313 14.9402 65.963 14.3865C66.613 13.8328 67.5278 13.5439 68.7555 13.5439C69.9592 13.5439 70.8981 13.8328 71.5481 14.3865C72.1981 14.9402 72.5111 15.7588 72.5111 16.7939V18.9847C72.5111 20.0199 72.1981 20.8384 71.5481 21.3921C70.8981 21.9458 69.9833 22.2347 68.7555 22.2347C67.5278 22.2347 66.613 21.9458 65.963 21.3921ZM69.8389 20.068C70.1037 19.8032 70.2241 19.4421 70.2241 18.9606V16.7699C70.2241 16.2884 70.1037 15.9273 69.8389 15.6625C69.5741 15.3976 69.213 15.2773 68.7315 15.2773C68.25 15.2773 67.8889 15.3976 67.6241 15.6625C67.3593 15.9273 67.2389 16.2884 67.2389 16.7699V18.9606C67.2389 19.4421 67.3593 19.8032 67.6241 20.068C67.8889 20.3328 68.25 20.4532 68.7315 20.4532C69.213 20.4773 69.5741 20.3328 69.8389 20.068Z" fill="white"/>
<path d="M81.2741 14.2662C81.7556 14.7476 81.9964 15.4699 81.9964 16.3847V22.018H79.7334V16.6013C79.7334 16.1921 79.6371 15.8791 79.4204 15.6625C79.2038 15.4217 78.9149 15.3013 78.5538 15.3013C77.7834 15.3013 77.2297 15.7588 76.8927 16.6736V22.018H74.6297V16.3125C74.6297 15.9995 74.5575 15.7347 74.4371 15.5421C74.3167 15.3495 74.1001 15.1328 73.7871 14.8921L75.3038 13.5439C75.6649 13.7365 75.9778 13.9291 76.1704 14.1458C76.3871 14.3625 76.5556 14.6032 76.676 14.8921C76.9167 14.4828 77.2538 14.1699 77.663 13.9291C78.0723 13.6884 78.5778 13.568 79.2038 13.568C80.0945 13.5439 80.7926 13.7847 81.2741 14.2662Z" fill="white"/>
<path d="M85.4384 22.0421C85.0291 21.9217 84.7162 21.7532 84.4754 21.5365C84.2347 21.3199 83.9699 21.031 83.7051 20.6699L85.1014 19.4662C85.4143 19.8513 85.6791 20.0921 85.944 20.2606C86.2088 20.405 86.5699 20.4773 87.0032 20.4773C87.5088 20.4773 87.8699 20.405 88.0865 20.2847C88.3032 20.1643 88.4236 19.9717 88.4236 19.7069C88.4236 19.4421 88.2791 19.2495 87.9902 19.105C87.7014 18.9606 87.1477 18.8162 86.3291 18.6717C84.7162 18.3587 83.8977 17.468 83.8977 15.9995C83.8977 15.2532 84.1866 14.6513 84.7884 14.218C85.3903 13.7847 86.1606 13.5439 87.1477 13.5439C87.9662 13.5439 88.6162 13.6643 89.0977 13.9051C89.5791 14.1458 89.9643 14.4828 90.2773 14.9402L88.881 16.1439C88.568 15.831 88.3032 15.6143 88.0625 15.4939C87.8217 15.3736 87.5088 15.3013 87.1477 15.3013C86.4014 15.3013 86.0403 15.5662 86.0403 16.0958C86.0403 16.3365 86.1606 16.5291 86.4254 16.6495C86.6662 16.7699 86.9791 16.8662 87.3643 16.9384C88.0865 17.1069 88.6643 17.2754 89.0736 17.4439C89.5069 17.6125 89.8439 17.8773 90.1328 18.2384C90.4217 18.5995 90.5662 19.105 90.5662 19.731C90.5662 20.5736 90.2773 21.1995 89.6754 21.6087C89.0736 22.018 88.1828 22.2106 87.0032 22.2106C86.3532 22.2347 85.8236 22.1624 85.4384 22.0421Z" fill="white"/>
<path d="M93.238 11.6427H89.5547V9.7168H99.3528V11.6427H95.6936V22.0186H93.238V11.6427Z" fill="white"/>
<path d="M106.431 14.0254L105.877 15.9273C105.636 15.7588 105.396 15.6384 105.179 15.5662C104.962 15.4939 104.697 15.4699 104.36 15.4699C103.59 15.4699 103.036 15.9754 102.699 17.0106V22.018H100.436V16.3125C100.436 15.9995 100.364 15.7347 100.244 15.5421C100.123 15.3495 99.9067 15.1328 99.5938 14.8921L101.11 13.5439C101.496 13.7606 101.809 13.9773 102.049 14.218C102.29 14.4588 102.459 14.7236 102.555 15.0606C102.796 14.6032 103.084 14.2421 103.47 13.9532C103.855 13.6884 104.312 13.5439 104.866 13.5439C105.492 13.5439 106.022 13.7125 106.431 14.0254Z" fill="white"/>
<path d="M115.171 20.2126C115.291 20.4052 115.508 20.6218 115.821 20.8626L114.304 22.2107C113.919 22.0181 113.63 21.8015 113.389 21.5848C113.172 21.3681 113.004 21.1033 112.883 20.7904C112.354 21.7533 111.511 22.2589 110.404 22.2589C109.489 22.2589 108.791 22.0181 108.285 21.5126C107.78 21.0311 107.539 20.3089 107.539 19.3941V13.7607H109.802V19.1774C109.802 19.5867 109.922 19.8996 110.139 20.1163C110.356 20.357 110.669 20.4774 111.078 20.4774C111.848 20.4774 112.402 19.9718 112.739 18.9607V13.7607H115.002V19.4422C115.002 19.7552 115.05 19.9959 115.171 20.2126Z" fill="white"/>
<path d="M118.493 22.0421C118.084 21.9217 117.771 21.7532 117.53 21.5365C117.289 21.3199 117.025 21.031 116.76 20.6699L118.156 19.4662C118.469 19.8513 118.734 20.0921 118.999 20.2606C119.263 20.405 119.625 20.4773 120.058 20.4773C120.563 20.4773 120.925 20.405 121.141 20.2847C121.358 20.1643 121.478 19.9717 121.478 19.7069C121.478 19.4421 121.334 19.2495 121.045 19.105C120.756 18.9606 120.202 18.8162 119.384 18.6717C117.771 18.3587 116.952 17.468 116.952 15.9995C116.952 15.2532 117.241 14.6513 117.843 14.218C118.445 13.7847 119.215 13.5439 120.202 13.5439C121.021 13.5439 121.671 13.6643 122.152 13.9051C122.634 14.1458 123.019 14.4828 123.332 14.9402L121.936 16.1439C121.623 15.831 121.358 15.6143 121.117 15.4939C120.876 15.3736 120.563 15.3013 120.202 15.3013C119.456 15.3013 119.095 15.5662 119.095 16.0958C119.095 16.3365 119.215 16.5291 119.48 16.6495C119.721 16.7699 120.034 16.8662 120.419 16.9384C121.141 17.1069 121.719 17.2754 122.128 17.4439C122.562 17.6125 122.899 17.8773 123.188 18.2384C123.476 18.5995 123.621 19.105 123.621 19.731C123.621 20.5736 123.332 21.1995 122.73 21.6087C122.128 22.018 121.238 22.2106 120.058 22.2106C119.432 22.2347 118.902 22.1624 118.493 22.0421Z" fill="white"/>
<path d="M127.641 15.5183V18.9368C127.641 19.4183 127.713 19.7794 127.857 19.972C128.002 20.1646 128.267 20.2609 128.628 20.2609H130V22.0183H128.628C127.809 22.0183 127.183 21.922 126.702 21.7294C126.244 21.5368 125.883 21.1998 125.691 20.7664C125.474 20.3331 125.378 19.7072 125.378 18.9368V12.4609C125.378 12.1479 125.306 11.8831 125.185 11.6905C125.065 11.4979 124.848 11.2813 124.535 11.0405L126.052 9.69238C126.654 10.0053 127.063 10.3424 127.28 10.7276C127.52 11.1127 127.617 11.6665 127.617 12.3646V13.7127H129.976V15.5183H127.641Z" fill="white"/>
<defs>
<linearGradient id="paint0_linear_1_33208" x1="0" y1="16.0004" x2="30.1292" y2="16.0004" gradientUnits="userSpaceOnUse">
<stop stop-color="#DBFFAA"/>
<stop offset="0.4385" stop-color="#08FFAD"/>
<stop offset="1" stop-color="#00A2AE"/>
</linearGradient>
</defs>
</svg>