<?xml version="1.0" encoding="UTF-8"?>
<svg id="Calque_2" data-name="Calque 2" xmlns="http://www.w3.org/2000/svg" viewBox="0 0 739.09 744.65">
  <defs>
    <style>
      .cls-1 {
        fill: #f9c238;
      }

      .cls-2 {
        fill: #2e3230;
      }
    </style>
  </defs>
  <g id="Calque_1-2" data-name="Calque 1">
    <g>
      <path class="cls-1" d="M654.44,20.38c45.01,23.94,75.87,72.79,82.22,123.26,4.83,141.94.73,284.7,2.15,426.94-4.64,109.13-67.68,171.53-177.51,173.49-48.44.87-96.53-1.17-145.04-1.12-76.38.07-154.31,2.87-231.05,1.13-109.64-2.48-178.7-57.4-183.49-170.51,4.22-134.06-5.47-271.41,0-405.09C5.57,74.21,64.52,9.34,159.28.05l424.03-.05c23.65,3.34,49.85,9.05,71.14,20.38ZM599.77,581.04c.83-6.24-.84-12.47-1.05-18.45-3.57-100.92,2.74-203.95.08-305.08-.94-8.66-4.29-16.48-10.01-22.99l-142.34-142.15c-3.96-4.35-3.73-4.21-7.15-4.39l-287.07.02c-9.01,1.27-19.35,2.36-25.52,9.55-.17.2-2.5,3.65-2.78,4.1-4.67,7.48-6.35,15.03-7.2,23.84v485.1c-.77,5.84,11.85,25.6,16.29,27.15,5.42,1.88,12.68,2.01,18.22,4.33l427.53-.03c9.91,10.56,19.38,17,34.55,12.05,16.94-5.52,25.89-27.29,15.28-42.38-7.35-10.47-19.65-21.22-28.83-30.67Z"/>
      <g>
        <path class="cls-2" d="M578.77,642.04c-2.88-3.07-6.04-7.15-9-10.5-25.09-28.51-51.67-57.91-77.03-85.97-2.15-2.38-3.88-7.55-6.91-8.11-1.11-.21-16.46,10.17-19.39,11.75-81.57,44.12-179.4,19.14-229.7-57.64-51.5-78.61-30.12-181,45.71-234.34,45.18-31.78,102.93-39.42,155.68-23.23,5.17,2.18-.9-.29,0,0,58.01,18.71,105.48,79.38,115.16,137.02,6.3,37.51-1.12,76.52-19.35,109.69-3.73,6.78-8.18,13.9-13.14,19.87l-.03,1.44c4.91,2.53,9.65,7.88,13.51,12.01,21.24,22.71,43.71,44.62,65.49,67.01,9.19,9.45,21.48,20.2,28.83,30.67,10.61,15.1,1.66,36.86-15.28,42.38-15.17,4.95-24.64-1.49-34.55-12.05ZM517.16,398.06c0-74.54-60.43-134.96-134.96-134.96s-134.96,60.43-134.96,134.96,60.43,134.96,134.96,134.96,134.96-60.43,134.96-134.96Z"/>
        <path class="cls-2" d="M421.77,318.04c12.85,1.53,27.17-.02,35.44,12.06,4.88,7.14,4.92,24.41,5.47,33.33.09,1.51.15,3.65.3,6.05.12,1.93,1.36,11.56,1.85,13.12,2.35,7.46,15.28,4.75,15.94,5.44,1.09,1.14,1.09,16.87-.16,18.81-1.6,2.5-13-1.46-15.38,6.13-.6,10.5-1.83,21.04-2.5,31.52-.62,9.71,2.43,15.09-4.53,24.44-9.27,12.44-23.06,8.89-36.41,11.09v-19c12.15-.51,16.78,3.68,17.98-10.52,1.03-12.16-.76-27.6,1.47-39.53.38-2.01,1.67-5.42,2.98-7.02l10.57-6.43c-13.48-2.18-13.82-12.64-15-24.02-.74-7.17.08-32.05-5.07-35.93-3.11-2.35-9.2-1.36-12.94-1.56v-18Z"/>
        <path class="cls-2" d="M340.77,319.04v18c-13.48-.04-16.85-1.85-17.99,12.51-.82,10.37,1.12,35.6-5.33,43.18-1.98,2.33-7.03,4.23-9.69,5.81,10.23,2.38,13.93,8.98,15.02,18.99.92,8.43-2.85,37.94,4.05,41.95,3.82,2.23,10.77,1.83,14.95.55v19h-16.5c-4.71,0-11.42-3.54-13.83-5.17-14.09-9.48-10.35-38.42-11.68-53.32-1.17-13.06-5.51-11.41-17.05-12.95-1.65-1.11-1.33-18.46.21-19.43,2.98-1.87,13,3.22,15.43-7.07,4.3-18.18-4.85-50.57,16.43-59.57.9-.38,8.05-2.51,8.49-2.51h17.5Z"/>
      </g>
    </g>
  </g>
</svg>